<svg width="55" height="46" viewBox="0 0 55 46" fill="none" xmlns="http://www.w3.org/2000/svg">
<path d="M18.9604 35.2705C21.7253 31.1628 24.4984 27.0363 27.392 22.7371C26.4028 22.7326 25.6003 22.7647 24.793 22.7046C20.8974 22.4429 16.9853 22.2191 13.1015 21.8275C11.8097 21.6907 10.5485 21.0716 9.31092 20.553C8.22467 20.1005 7.58864 19.2367 7.59785 17.9791C7.60563 15.4369 7.52122 12.8993 7.55618 10.3464C7.56891 8.9778 8.56162 8.51076 9.7023 9.30241C10.0959 9.58717 10.4151 10.0421 10.6776 10.4723C11.5028 11.7793 12.2654 13.1265 13.0552 14.4631C13.4489 15.1083 13.9619 15.3777 14.7478 15.3835C24.6167 15.3284 34.4607 15.33 44.3295 15.2749C46.769 15.2602 48.9651 15.9051 50.8706 17.3691C51.6602 17.9847 52.2525 18.897 52.7585 19.7491C53.2752 20.6283 53.0685 21.1011 52.0639 21.3377C50.9045 21.6192 49.7049 21.8381 48.5171 21.927C45.2575 22.1687 41.9955 22.3644 38.7394 22.495C37.7986 22.5342 37.1025 22.8381 36.4396 23.4268C32.5684 26.8704 28.6593 30.2975 24.7774 33.7139C23.4599 34.8725 22.0276 35.7781 20.1637 35.6614C19.8304 35.6509 19.5136 35.6025 19.1697 35.5647C19.0917 35.4855 19.0302 35.3685 18.9604 35.2705Z" fill="white"/>
<path d="M30.4442 13.4385C28.2541 13.4495 26.0747 13.4878 23.8929 13.4799C23.7168 13.4705 23.4816 13.3902 23.3823 13.2566C21.9022 11.0775 20.422 8.89838 18.9501 6.70033C18.891 6.62943 18.9217 6.50769 18.885 6.33396C20.6424 5.81831 22.2629 6.23402 23.6022 7.29274C25.9817 9.16676 28.2679 11.2027 30.5872 13.163C30.5458 13.2576 30.4855 13.3439 30.4442 13.4385Z" fill="white"/>
</svg>
